<?xml version="1.0" encoding="utf-8"?>
<svg width="117" height="24" viewBox="0 0 117 24" fill="none" xmlns="http://www.w3.org/2000/svg">
<path fill-rule="evenodd" clip-rule="evenodd" d="M4.64854 6.6909C4.64854 7.81648 5.27514 8.56687 6.68501 9.16093C7.71892 9.59865 8.75282 9.97385 9.94337 10.5054C12.5438 11.6622 14.1103 13.4757 14.1103 16.5397C14.1103 20.6669 11.1653 23.262 6.96699 23.262C1.23352 23.262 -0.145014 19.5413 0.0116383 16.1958H4.14725C4.11592 17.9467 4.83652 19.51 6.96699 19.51C8.50218 19.51 9.63007 18.6346 9.63007 17.0087C9.63007 15.5705 8.72149 14.8201 7.31162 14.226C6.08973 13.6633 4.80519 13.2881 3.55197 12.5689C1.45284 11.4746 0.324942 9.50485 0.324942 6.90976C0.324942 3.37669 2.89403 0.812866 6.96699 0.812866C11.8545 0.812866 13.5777 3.75188 13.421 7.28496H9.41076C9.41076 5.69038 8.56484 4.53354 6.96699 4.53354C5.46313 4.53354 4.64854 5.47152 4.64854 6.6909ZM24.1679 19.3538C25.8597 19.3538 26.9249 18.6034 27.6769 17.9781L29.9953 20.792C28.9927 21.8551 27.0189 23.137 24.1365 23.137C18.8417 23.137 15.458 19.385 15.458 14.5388C15.458 9.66127 19.0923 5.8468 24.1052 5.8468C27.1442 5.8468 28.9927 7.06618 29.9953 8.09796L27.5829 11.0057C26.8936 10.3491 25.797 9.63 24.1365 9.63C21.3795 9.63 19.6563 11.7248 19.6563 14.5075C19.6563 17.5091 21.7554 19.3538 24.1679 19.3538ZM34.9453 14.5075C34.9453 17.3215 36.8251 19.3538 39.5196 19.3538C42.2766 19.3538 44.0625 17.2902 44.0625 14.5075C44.0625 11.7248 42.1826 9.63 39.4882 9.63C36.7311 9.63 34.9453 11.6936 34.9453 14.5075ZM30.7471 14.5388C30.7471 9.56747 34.4441 5.8468 39.4883 5.8468C44.7831 5.8468 48.2608 9.53621 48.2608 14.4763C48.2608 19.385 44.6578 23.137 39.4883 23.137C34.2561 23.137 30.7471 19.4788 30.7471 14.5388ZM54.2129 6.12817V16.6336C54.2129 18.2594 54.8709 19.2912 56.3747 19.2912C57.8786 19.2912 58.6932 18.1969 58.6932 16.6023V6.12817H62.8914V22.8556H58.7245V21.6049C58.2859 22.1677 57.1893 23.0432 55.2155 23.0432C51.4872 23.0432 50.0146 20.5419 50.0146 17.1339V6.12817H54.2129ZM70.2541 3.50183V6.12819H72.8231V9.66126H70.2541V17.4465C70.2541 18.6972 70.6613 19.2287 71.8519 19.2287H72.8231V22.793C72.7291 22.793 71.9772 23.0119 70.536 23.0119C67.3717 23.0119 66.0558 21.4173 66.0558 18.6346V9.66126H64.4893V6.12819H66.0558V3.50183H70.2541ZM90.4942 15.852H78.526C78.7453 18.0719 80.3118 19.4163 82.6929 19.4163C84.8234 19.4163 86.0453 18.2907 86.9225 16.915L90.0242 18.791C89.0217 20.8858 86.7659 23.137 82.6929 23.137C77.6174 23.137 74.1084 19.854 74.1084 14.5388C74.1084 9.53621 77.4921 5.8468 82.3483 5.8468C87.3925 5.8468 90.5569 9.12975 90.5569 14.1323C90.5569 14.5388 90.5569 15.1328 90.4942 15.852ZM82.3161 9.37976C80.1857 9.37976 78.8385 10.7867 78.6191 12.694H86.2011C86.0131 10.818 84.6032 9.37976 82.3161 9.37976ZM105.251 22.8556V21.1984C104.248 22.2615 102.431 23.1369 100.301 23.1369C95.0997 23.1369 91.6533 19.5726 91.6533 14.5388C91.6533 9.6925 95.0997 5.84677 100.144 5.84677C102.274 5.84677 103.935 6.53462 104.969 7.47261V0H109.167V22.8556H105.251ZM95.8516 14.4762C95.8516 17.2901 97.7627 19.385 100.488 19.385C103.308 19.385 105.094 17.2589 105.094 14.4762C105.094 11.6935 103.246 9.56738 100.488 9.56738C97.6687 9.56738 95.8516 11.6935 95.8516 14.4762ZM113.647 23.1994C112.144 23.1994 110.984 22.0113 110.984 20.5105C110.984 18.9785 112.112 17.8217 113.647 17.8217C115.183 17.8217 116.311 18.9785 116.311 20.5105C116.311 22.0113 115.183 23.1994 113.647 23.1994Z" transform="translate(0.556641)" fill="#363636"/>
</svg>
