<?xml version="1.0" encoding="UTF-8"?>
<svg width="16" height="16" viewBox="0 0 16 16" fill="none" xmlns="http://www.w3.org/2000/svg">
<path fill-rule="evenodd" clip-rule="evenodd" d="M0 8C0 3.58398 3.58398 0 8 0C12.416 0 16 3.58398 16 8C16 12.416 12.416 16 8 16C3.58398 16 0 12.416 0 8ZM11.687 6.35352C11.8823 6.1582 11.8823 5.8418 11.687 5.64648C11.4917 5.45117 11.1748 5.45117 10.98 5.64648L7.3335 9.29297L5.35352 7.31299C5.1582 7.11768 4.8418 7.11768 4.64648 7.31299C4.45117 7.5083 4.45117 7.8252 4.64648 8.02002L6.97998 10.3535L7.3335 10.707L7.68701 10.3535L11.687 6.35352Z" fill="#27C696"/>
</svg>
