<?xml version="1.0" encoding="UTF-8"?>
<svg width="20" height="20" viewBox="0 0 20 20" fill="none" xmlns="http://www.w3.org/2000/svg">
<path fill-rule="evenodd" clip-rule="evenodd" d="M11.7856 3.33496L10 0L8.21436 3.33496L5 1.33984L5.12109 5.12109L1.33984 5L3.33496 8.21436L0 10L3.33496 11.7856L1.33984 15L5.12109 14.8789L5 18.6602L8.21436 16.665L10 20L11.7856 16.665L15 18.6602L14.8789 14.8789L18.6602 15L16.665 11.7856L20 10L16.665 8.21436L18.6602 5L14.8789 5.12109L15 1.33984L11.7856 3.33496ZM13.687 8.35352C13.8823 8.1582 13.8823 7.8418 13.687 7.64648C13.4917 7.45117 13.1748 7.45117 12.98 7.64648L9.3335 11.293L7.35352 9.31299C7.1582 9.11768 6.8418 9.11768 6.64648 9.31299C6.45117 9.5083 6.45117 9.8252 6.64648 10.02L8.97998 12.3535L9.3335 12.707L9.68701 12.3535L13.687 8.35352Z" fill="#FDBC51"/>
</svg>
