<?xml version="1.0" encoding="utf-8"?>
<svg width="165" height="179" viewBox="0 0 165 179" fill="none" xmlns="http://www.w3.org/2000/svg">
<path opacity="0.2" d="M82.7383 178.23C128.026 178.23 164.738 171.962 164.738 164.23C164.738 156.498 128.026 150.23 82.7383 150.23C37.4509 150.23 0.738281 156.498 0.738281 164.23C0.738281 171.962 37.4509 178.23 82.7383 178.23Z" fill="#2E3192"/>
<path fill-rule="evenodd" clip-rule="evenodd" d="M42.8403 65.4299C42.8303 65.4399 42.8303 65.4398 42.8303 65.4398L33.3203 13.1898C42.3303 11.4598 51.7104 12.0598 60.4904 15.0698C58.3804 16.8998 56.3904 18.9199 54.5304 21.1299C43.7804 33.9499 40.0103 50.2699 42.8403 65.4299Z" fill="#6754C8"/>
<path fill-rule="evenodd" clip-rule="evenodd" d="M39.1796 73.47C22.2496 97.64 27.9195 130.81 51.8395 147.56C75.7695 164.31 108.88 158.29 125.8 134.12C142.73 109.95 137.06 76.7701 113.14 60.0201C89.2196 43.2701 56.1096 49.29 39.1796 73.47Z" fill="#6754C8"/>
<path fill-rule="evenodd" clip-rule="evenodd" d="M57.289 14.9999C36.919 34.6599 36.189 66.9298 55.649 87.0798C75.099 107.23 107.379 107.62 127.739 87.9598C148.099 68.2998 148.839 36.0299 129.379 15.8799C109.919 -4.27013 77.649 -4.66013 57.289 14.9999Z" fill="#6754C8"/>
<path fill-rule="evenodd" clip-rule="evenodd" d="M52.4685 21.55C54.1285 19.18 55.9385 17 57.8785 14.98C63.9685 16.49 69.8885 19.1201 75.3185 22.9301C85.7485 30.2301 92.7085 40.65 95.8385 52.09C99.8885 66.89 97.5385 83.39 87.9885 97.02C86.3285 99.39 84.5185 101.58 82.5785 103.59C69.1285 117.53 49.3985 122.93 31.2585 118.36C27.2085 103.56 29.5685 87.06 39.1185 73.42C40.8185 71 42.6786 68.76 44.6786 66.7C40.5486 51.84 42.8785 35.25 52.4685 21.55Z" fill="#F3F3F3"/>
<path fill-rule="evenodd" clip-rule="evenodd" d="M62.9017 32.56C60.6917 30.79 60.7717 27.4299 63.0617 25.7099C64.6117 24.5399 66.8116 24.57 68.3216 25.78C70.5216 27.55 70.4517 30.9099 68.1617 32.6199C66.6017 33.7899 64.4017 33.77 62.9017 32.56Z" fill="#2E3192"/>
<path d="M52.4988 164.24C52.0588 160.68 54.5988 157.43 58.1588 156.99L102.819 151.51C106.389 151.07 109.629 153.61 110.069 157.17C110.499 160.73 107.969 163.98 104.409 164.41L59.7388 169.9C56.1788 170.34 52.9388 167.8 52.4988 164.24Z" fill="#6754C8"/>
<path opacity="0.8" d="M52.5613 149.2C53.1213 145.65 56.4512 143.23 59.9912 143.8L104.441 150.84C107.991 151.4 110.401 154.73 109.841 158.27C109.281 161.82 105.951 164.24 102.411 163.68L57.9612 156.64C54.4112 156.07 52.0013 152.74 52.5613 149.2Z" fill="#6754C8"/>
</svg>
