<?xml version="1.0" encoding="utf-8"?>
<svg width="185" height="190" viewBox="0 0 185 190" fill="none" xmlns="http://www.w3.org/2000/svg">
<ellipse opacity="0.2" rx="53.2626" ry="9.09028" transform="matrix(-1.00026 -2.31868e-09 -1.07519e-08 0.999739 96.1571 140.136)" fill="#2E3192"/>
<path fill-rule="evenodd" clip-rule="evenodd" d="M122.081 76.0039C122.082 76.0047 122.082 76.0052 122.083 76.0059L128.263 42.0902C122.411 40.9669 116.315 41.3543 110.608 43.3078C111.978 44.4997 113.276 45.8121 114.481 47.2473C121.467 55.5653 123.915 66.1635 122.081 76.0039Z" fill="#2E3192"/>
<path fill-rule="evenodd" clip-rule="evenodd" d="M124.455 81.217C135.452 96.909 131.769 118.444 116.227 129.316C100.686 140.189 79.1717 136.282 68.1743 120.59C57.1768 104.898 60.8605 83.3633 76.402 72.4907C91.9435 61.6181 113.457 65.525 124.455 81.217Z" fill="#2E3192"/>
<path fill-rule="evenodd" clip-rule="evenodd" d="M112.695 43.2657C125.923 56.0292 126.399 76.9783 113.759 90.0566C101.118 103.135 80.1461 103.391 66.9174 90.6273C53.6887 77.8638 53.2125 56.9148 65.8535 43.8362C78.4943 30.7579 99.4658 30.5023 112.695 43.2657Z" fill="#2E3192"/>
<path fill-rule="evenodd" clip-rule="evenodd" d="M115.819 47.5165C114.744 45.9816 113.566 44.5612 112.305 43.2546C108.348 44.2338 104.505 45.9394 100.972 48.4111C94.1974 53.1508 89.6766 59.917 87.6423 67.3418C85.01 76.9492 86.5413 87.6592 92.7447 96.5107C93.8203 98.0454 94.998 99.4658 96.2591 100.772C104.996 109.822 117.817 113.327 129.6 110.36C132.232 100.752 130.701 90.0423 124.498 81.1909C123.394 79.6152 122.182 78.1604 120.882 76.8255C123.568 67.1823 122.053 56.411 115.819 47.5165Z" fill="white"/>
<path fill-rule="evenodd" clip-rule="evenodd" d="M109.045 54.6631C110.48 53.5128 110.43 51.3338 108.944 50.2195C107.931 49.4599 106.504 49.4773 105.527 50.2609C104.092 51.4112 104.141 53.5902 105.628 54.7047C106.64 55.4641 108.068 55.4467 109.045 54.6631Z" fill="#2E3192"/>
<path d="M115.806 140.142C116.09 137.829 114.444 135.724 112.13 135.44L83.1079 131.88C80.7938 131.596 78.6874 133.241 78.4032 135.554C78.1189 137.867 79.7645 139.972 82.0786 140.256L111.101 143.816C113.415 144.1 115.521 142.455 115.806 140.142Z" fill="#2E3192"/>
<path opacity="0.8" d="M115.766 130.379C115.401 128.078 113.239 126.507 110.936 126.872L82.0557 131.442C79.7528 131.806 78.1818 133.967 78.5467 136.269C78.9115 138.571 81.0741 140.141 83.3769 139.777L112.257 135.207C114.56 134.842 116.131 132.681 115.766 130.379Z" fill="#2E3192"/>
</svg>
