<?xml version="1.0" encoding="UTF-8"?>
<svg width="285" height="294" viewBox="0 0 285 294" fill="none" xmlns="http://www.w3.org/2000/svg">
<ellipse opacity="0.2" cx="136.739" cy="216.23" rx="82" ry="14" fill="#2E3192"/>
<path fill-rule="evenodd" clip-rule="evenodd" d="M96.8369 117.434C96.8356 117.435 96.8344 117.436 96.833 117.437L87.3218 65.1897C96.328 63.4593 105.711 64.0561 114.495 67.0655C112.386 68.9016 110.39 70.9233 108.534 73.1343C97.7821 85.9482 94.0134 102.275 96.8369 117.434Z" fill="#2E3192"/>
<path fill-rule="evenodd" clip-rule="evenodd" d="M93.1803 125.465C76.2537 149.638 81.9233 182.813 105.844 199.562C129.764 216.312 162.877 210.293 179.804 186.119C196.731 161.946 191.061 128.771 167.14 112.022C143.22 95.2725 110.107 101.291 93.1803 125.465Z" fill="#2E3192"/>
<path fill-rule="evenodd" clip-rule="evenodd" d="M111.286 67C90.9248 86.6622 90.1918 118.934 109.648 139.082C129.104 159.229 161.382 159.623 181.743 139.961C202.104 120.299 202.837 88.0264 183.381 67.8789C163.925 47.7315 131.646 47.3378 111.286 67Z" fill="#2E3192"/>
<path fill-rule="evenodd" clip-rule="evenodd" d="M106.472 73.5485C108.128 71.184 109.94 68.9959 111.882 66.983C117.972 68.4915 123.886 71.1189 129.324 74.9266C139.752 82.2281 146.71 92.6516 149.841 104.09C153.892 118.89 151.535 135.389 141.987 149.024C140.332 151.389 138.519 153.577 136.578 155.59C123.131 169.53 103.397 174.93 85.2616 170.359C81.2104 155.559 83.567 139.06 93.1149 125.424C94.8145 122.997 96.6797 120.756 98.6803 118.699C94.5463 103.844 96.878 87.2505 106.472 73.5485Z" fill="white"/>
<path fill-rule="evenodd" clip-rule="evenodd" d="M116.899 84.5582C114.691 82.7862 114.767 79.4294 117.054 77.7127C118.613 76.5426 120.81 76.5694 122.314 77.7766C124.522 79.5485 124.446 82.9054 122.158 84.6223C120.6 85.7921 118.403 85.7653 116.899 84.5582Z" fill="#2E3192"/>
<path d="M106.5 216.239C106.063 212.676 108.596 209.432 112.16 208.995L156.824 203.511C160.387 203.073 163.63 205.607 164.068 209.17C164.505 212.733 161.972 215.976 158.408 216.414L113.744 221.898C110.181 222.336 106.938 219.802 106.5 216.239Z" fill="#2E3192"/>
<path opacity="0.8" d="M106.557 201.2C107.119 197.654 110.449 195.235 113.994 195.797L158.44 202.836C161.986 203.398 164.405 206.727 163.843 210.273C163.282 213.819 159.952 216.238 156.407 215.676L111.961 208.637C108.415 208.075 105.996 204.745 106.557 201.2Z" fill="#2E3192"/>
</svg>
